PathFileType	4	(X/Y/Z)	./resultDataOpenSim/trcMotMarkerGrf/sub10/qtm-14-02.trc
DataRate	CameraRate	NumFrames	NumMarkers	Units	OrigDataRate	OrigDataStartFrame	OrigNumFrames
250.000000	250.000000	14	24	m	250.000000	246	490
Frame#	Time	L.Toe.Tip			R.Toe.Tip			L.Ankle.Lat			R.Ankle.Lat			L.Ankle.Med			R.Ankle.Med			L.Heel			R.Heel			L.Knee.Lat			R.Knee.Lat			L.Knee.Med			R.Knee.Med			L.Thigh.Upper			R.Thigh.Upper			L.ASIS			R.ASIS			V.Sacral			L.Acromium			R.Acromium			C7			L.Elbow			R.Elbow			L.Wrist.Lat			R.Wrist.Lat
		X1	Y1	Z1	X2	Y2	Z2	X3	Y3	Z3	X4	Y4	Z4	X5	Y5	Z5	X6	Y6	Z6	X7	Y7	Z7	X8	Y8	Z8	X9	Y9	Z9	X10	Y10	Z10	X11	Y11	Z11	X12	Y12	Z12	X13	Y13	Z13	X14	Y14	Z14	X15	Y15	Z15	X16	Y16	Z16	X17	Y17	Z17	X18	Y18	Z18	X19	Y19	Z19	X20	Y20	Z20	X21	Y21	Z21	X22	Y22	Z22	X23	Y23	Z23	X24	Y24	Z24

246	0.98	0.050742453	-0.032341653	-0.066785339	0.64556936	0.11159597	0.084762963	-0.076304925	0.010418533	-0.11172461	0.50456878	0.10762201	0.1151277	-0.069221255	0.040438164	-0.029568412	0.52563244	0.13571523	0.032114996	-0.14719611	-0.0060434209	-0.070204622	0.46293014	0.072020359	0.066771084	0.034108299	0.38093889	-0.15836967	0.4533868	0.50529587	0.10971821	0.033269423	0.36666134	-0.037400143	0.46944994	0.51285603	-0.017062836	0.12631084	0.76766337	-0.23360823	0.18955814	0.80673088	0.14878486	0.19896344	0.87606687	-0.17772726	0.24142026	0.89379362	0.069816826	0.020535691	0.90145423	-0.017082213	0.25560246	1.3503618	-0.2014107	0.16438689	1.3831056	0.077367046	0.13884075	1.3854467	-0.086322215	0.31402596	1.0829788	-0.41134399	-0.052737882	1.1867812	0.244271	0.56216351	1.0540467	-0.43748865	-0.10809557	1.2055231	0.4903376
247	0.984	0.050843605	-0.032350078	-0.066745773	0.66204335	0.11219966	0.080190712	-0.075884047	0.011664261	-0.11121298	0.52124456	0.10541519	0.11237212	-0.06815917	0.04157978	-0.029055496	0.54119785	0.13453191	0.029523522	-0.14671075	-0.0041854094	-0.069261335	0.48008383	0.069416598	0.064150559	0.035659322	0.38186898	-0.15794508	0.45957571	0.5018939	0.10899702	0.035449739	0.36746688	-0.036948134	0.47536658	0.50928503	-0.017766599	0.12996541	0.76729441	-0.23271313	0.19838962	0.80685602	0.14853656	0.20435951	0.87596462	-0.17829656	0.2494637	0.89462423	0.069295369	0.027645271	0.9002996	-0.016232717	0.26142243	1.3508198	-0.20133343	0.17008593	1.3833296	0.076865297	0.14463128	1.3854335	-0.086350152	0.32380804	1.0851485	-0.41186225	-0.048237055	1.1888303	0.24435176	0.57240919	1.0597289	-0.4353999	-0.10578326	1.2108575	0.48959179
248	0.988	0.050939355	-0.032357829	-0.0666967	0.677888	0.11330394	0.07562076	-0.075454204	0.012948963	-0.11068218	0.53735172	0.10356183	0.10975124	-0.066983063	0.042716263	-0.028576924	0.55626676	0.13353495	0.026860422	-0.14619696	-0.0022916812	-0.068314549	0.49680816	0.06695289	0.061466718	0.037303909	0.38278546	-0.15750297	0.46572063	0.49841796	0.10832279	0.037890735	0.36820014	-0.036450107	0.48129448	0.50566725	-0.018507719	0.13367383	0.76687716	-0.23196306	0.20722483	0.80696487	0.14828808	0.20980192	0.87576007	-0.17879328	0.2575991	0.89541555	0.068635706	0.034985883	0.89912598	-0.015313222	0.26721403	1.3512497	-0.20125119	0.17580149	1.3834885	0.076407871	0.15040911	1.3853693	-0.086354909	0.3335329	1.0872529	-0.41226567	-0.043712743	1.1908271	0.24438764	0.58261751	1.0653572	-0.43313707	-0.10332881	1.2160227	0.4887847
249	0.992	0.051034256	-0.032365877	-0.066637979	0.69309054	0.11490971	0.071099754	-0.075019151	0.014270589	-0.11010991	0.55288245	0.10201728	0.10720444	-0.065716601	0.043849581	-0.02811777	0.57078132	0.13266216	0.024150986	-0.14565933	-0.00035808647	-0.067352004	0.51307361	0.064589331	0.058733057	0.039032919	0.38368865	-0.15707443	0.4718233	0.49489999	0.1076862	0.040605521	0.36883773	-0.035927709	0.48724277	0.5020322	-0.019295067	0.13756679	0.76644706	-0.23143213	0.21606866	0.80706862	0.14803112	0.21528741	0.87545246	-0.17923536	0.26581768	0.896146	0.067826596	0.043300827	0.89781647	-0.014421826	0.27297387	1.3516516	-0.20116398	0.18152597	1.3835921	0.075997991	0.15618937	1.3852642	-0.086332789	0.34319725	1.0892907	-0.41256813	-0.039169524	1.1927947	0.24439133	0.59269787	1.0708792	-0.43079796	-0.10069466	1.2210135	0.48791374
250	0.996	0.051130504	-0.032375674	-0.066569994	0.70765204	0.11689965	0.06673744	-0.074568704	0.015617892	-0.10949853	0.56785916	0.10060464	0.10458255	-0.064428491	0.044980539	-0.027638035	0.58469718	0.13186151	0.021456175	-0.14509166	0.0016153446	-0.066368192	0.52885163	0.062307879	0.0559355	0.040804604	0.38457574	-0.15670681	0.47789717	0.49138559	0.10708283	0.043604372	0.36935738	-0.035409143	0.49319162	0.49839133	-0.020123286	0.14162126	0.76602065	-0.23098017	0.22492698	0.80717009	0.14775525	0.22081102	0.87503853	-0.17965618	0.27410677	0.89680711	0.06686166	0.053265508	0.89625438	-0.013832329	0.27871196	1.3520254	-0.201068	0.18725884	1.3836439	0.075634982	0.16199106	1.385124	-0.086268674	0.35279269	1.0912623	-0.41278794	-0.034632924	1.1947277	0.24436302	0.60263165	1.0762818	-0.42840834	-0.097852698	1.2258387	0.48697784
251	1	0.0512294	-0.032385889	-0.066494736	0.72159014	0.11906695	0.062663982	-0.074069081	0.016985034	-0.1088803	0.58235447	0.099074348	0.10175249	-0.063186028	0.046113389	-0.027082633	0.59798813	0.13109626	0.018837754	-0.14448064	0.0036270402	-0.065375896	0.54410696	0.060123248	0.05305664	0.042591928	0.38542779	-0.15642458	0.48396825	0.48793218	0.10651022	0.046892508	0.36973531	-0.034914917	0.4991116	0.49475406	-0.020973729	0.1457204	0.76562758	-0.2304478	0.23380272	0.80725821	0.1474532	0.22636844	0.87451724	-0.18006827	0.2824458	0.89739715	0.06574345	0.064406611	0.89448106	-0.013813649	0.28443414	1.3523737	-0.20096586	0.19301317	1.3836423	0.075317583	0.16782149	1.3849444	-0.086149678	0.36230613	1.0931684	-0.41293499	-0.030117327	1.1966062	0.24429125	0.61245635	1.0815872	-0.42590456	-0.094829076	1.2305132	0.48598781
252	1.004	0.051333448	-0.03239368	-0.066414631	0.73493115	0.12122041	0.05896404	-0.073486505	0.018374479	-0.10829549	0.59638368	0.097357683	0.098741074	-0.062015027	0.047260633	-0.026417698	0.61066444	0.1303532	0.016316514	-0.14381463	0.0056733114	-0.064398124	0.55880103	0.05806677	0.050097971	0.044464166	0.38621828	-0.15618908	0.49005874	0.48458833	0.10595671	0.050464039	0.36995919	-0.034449454	0.50500393	0.49114697	-0.021830594	0.14972228	0.76531382	-0.22976382	0.24270281	0.80731825	0.14712085	0.23194565	0.87389058	-0.18045514	0.29081028	0.89790977	0.064479799	0.075142002	0.89271251	-0.014336503	0.29014091	1.3527001	-0.20086015	0.19881014	1.3835883	0.075045507	0.17367199	1.3847144	-0.085981782	0.37172713	1.095011	-0.41301021	-0.025626308	1.1984093	0.24416832	0.6222509	1.0868369	-0.42315243	-0.091706082	1.2350383	0.48496258
253	1.008	0.05144457	-0.032396651	-0.06632991	0.74770849	0.12323045	0.055662288	-0.072838343	0.019789405	-0.1077328	0.60983679	0.095638984	0.095711434	-0.060872446	0.048428511	-0.0256732	0.62279887	0.12966772	0.013850001	-0.14309259	0.0077477765	-0.063455798	0.57289341	0.05615825	0.047081327	0.046562159	0.38693564	-0.15591604	0.49618631	0.48138139	0.10540784	0.054299765	0.37004228	-0.034003711	0.51090539	0.48761099	-0.022690202	0.1535454	0.76512594	-0.22894879	0.25164322	0.80734446	0.14675622	0.23751898	0.87316404	-0.18080373	0.2991732	0.89832862	0.063076562	0.084443081	0.89120048	-0.015084682	0.2958343	1.3530035	-0.20074762	0.20466144	1.3834876	0.074816929	0.17953167	1.3844259	-0.08578392	0.38105185	1.0967908	-0.41301243	-0.021153288	1.2001246	0.24400072	0.63207735	1.0920571	-0.42005233	-0.088547199	1.2393932	0.48391312
254	1.012	0.05156192	-0.032393342	-0.066237629	0.75994198	0.12500173	0.052739403	-0.072222857	0.021246045	-0.10709453	0.62254727	0.094127513	0.092813726	-0.059663506	0.049602555	-0.024943015	0.63448455	0.12908315	0.011380934	-0.14232369	0.0098444503	-0.062552577	0.58633399	0.054396395	0.044055853	0.048980096	0.38759114	-0.15554143	0.502363	0.47831657	0.10484838	0.058371833	0.37001615	-0.033569408	0.51685304	0.48418639	-0.023553438	0.15719846	0.7650899	-0.2280802	0.26063851	0.80733497	0.14635809	0.24307735	0.8723523	-0.18112385	0.30750072	0.89863053	0.061533907	0.092341185	0.89020386	-0.015423361	0.30151546	1.3532767	-0.20063023	0.21055838	1.3833447	0.074624856	0.18539847	1.3840794	-0.085564827	0.39028035	1.0985045	-0.41294363	-0.016683432	1.2017501	0.24378813	0.64188568	1.0972183	-0.4166899	-0.085352616	1.2435526	0.48283724
255	1.016	0.051684065	-0.032383901	-0.066131913	0.77159694	0.12647159	0.050106403	-0.071789724	0.022775932	-0.10623471	0.63431077	0.09294759	0.09015097	-0.05830635	0.050760512	-0.024333376	0.64575482	0.12857363	0.0089062907	-0.1415185	0.011964714	-0.061651945	0.59907657	0.052769306	0.04109442	0.051725771	0.38820541	-0.155057	0.50858569	0.47538103	0.10425828	0.062651139	0.36991176	-0.033149697	0.52286247	0.48090814	-0.024416457	0.16075547	0.76519679	-0.22723729	0.26969137	0.8072799	0.14592579	0.2486317	0.87148367	-0.18143265	0.3157636	0.89879457	0.059856484	0.099070597	0.88988776	-0.014654185	0.30718387	1.3535149	-0.2005152	0.21648582	1.3831612	0.074459349	0.19127529	1.3836871	-0.085317954	0.39942035	1.1001533	-0.41280242	-0.012200829	1.2032859	0.2435119	0.65152885	1.1022413	-0.41329912	-0.082097341	1.2475127	0.48172506
256	1.02	0.051812019	-0.032369499	-0.066007185	0.78260839	0.12761098	0.047624295	-0.071616183	0.024390617	-0.10507672	0.64495184	0.092161089	0.087796745	-0.056773012	0.051895439	-0.02388549	0.65656809	0.12805968	0.0064758364	-0.14068481	0.014128597	-0.06068329	0.61110896	0.051260046	0.03824626	0.0547641	0.3887925	-0.15449525	0.51484028	0.47255757	0.10362454	0.067112081	0.36975002	-0.032752662	0.52893487	0.47780967	-0.025271121	0.16432236	0.7654035	-0.2264478	0.27879744	0.80716816	0.14546384	0.2542016	0.8705903	-0.18173563	0.32397447	0.8988117	0.058075823	0.10510806	0.89008889	-0.012868428	0.31284579	1.3537191	-0.20040007	0.22244288	1.3829367	0.074319135	0.19715918	1.3832689	-0.085042067	0.40849506	1.1017528	-0.41257221	-0.0076924796	1.2047281	0.24315914	0.66089627	1.1070635	-0.41005482	-0.078754073	1.2512938	0.48057048
257	1.024	0.051946388	-0.032349982	-0.065866027	0.7929592	0.1283944	0.045207396	-0.071563052	0.026053225	-0.10374949	0.65458533	0.091655866	0.085717383	-0.055106001	0.053026065	-0.023525372	0.66685698	0.12747551	0.0041380789	-0.13982231	0.016374098	-0.059603471	0.62244191	0.049840402	0.035520327	0.058045415	0.38935476	-0.15389789	0.52111332	0.46984042	0.10294839	0.071733511	0.36954688	-0.032378655	0.53506809	0.47492822	-0.026111534	0.16799788	0.765646	-0.22567685	0.28795479	0.80699622	0.14498481	0.2598052	0.86969159	-0.18202714	0.33220687	0.89868693	0.056253909	0.11118432	0.89044293	-0.010848022	0.31851158	1.3538916	-0.20027562	0.22844472	1.382672	0.074217635	0.20304112	1.3828391	-0.084750965	0.41753311	1.1033305	-0.41222734	-0.0031486808	1.2060697	0.24273645	0.66995727	1.1116791	-0.40703071	-0.075269007	1.2549098	0.47938132
258	1.028	0.052081319	-0.032323674	-0.065721476	0.80269036	0.12879882	0.042865407	-0.071348185	0.027706642	-0.10253144	0.66366427	0.091113652	0.083747306	-0.053398287	0.054187966	-0.023123404	0.67657553	0.12677601	0.0019095267	-0.13891412	0.0187258	-0.058449602	0.63306816	0.04846706	0.032935495	0.061511111	0.38989029	-0.1532909	0.52739177	0.46723246	0.10223238	0.076497145	0.36932308	-0.032027215	0.54125929	0.47231199	-0.026940612	0.17185775	0.76586475	-0.22486691	0.29716601	0.80676132	0.14450302	0.26546028	0.86879464	-0.18230361	0.34053628	0.89842834	0.054449215	0.1176184	0.89072876	-0.0090919193	0.32418315	1.3540296	-0.20014003	0.23450751	1.3823721	0.074169279	0.20892495	1.3823943	-0.084452436	0.42654094	1.104903	-0.41176507	0.0014378129	1.2073058	0.24225727	0.67870071	1.1160961	-0.40430931	-0.071572036	1.2583439	0.47817122
259	1.032	0.052206167	-0.032290119	-0.06558592	0.81184535	0.1288293	0.040647655	-0.07080964	0.029331162	-0.10159325	0.67260002	0.090244029	0.081729155	-0.051713986	0.055407786	-0.02261694	0.68570973	0.12591752	-0.00021228589	-0.13793514	0.02116372	-0.057312538	0.64296333	0.047092987	0.030535939	0.065096316	0.39040182	-0.15267482	0.53365782	0.46472912	0.10147289	0.08138502	0.36910993	-0.031724136	0.54749854	0.47002072	-0.027775254	0.17596231	0.76602517	-0.22399169	0.30643478	0.80645966	0.14402616	0.27117284	0.86790683	-0.182575	0.34895409	0.89803362	0.052684904	0.12426536	0.89092517	-0.0075947236	0.32985785	1.3541275	-0.19999576	0.24063453	1.3820453	0.074173724	0.21483126	1.381917	-0.084131062	0.43548943	1.1064445	-0.4112356	0.0060744468	1.2084358	0.24173091	0.68715309	1.1203048	-0.40193551	-0.067631707	1.2615672	0.47694708
